# xmcd
#
# Track frame offsets: 
#        219
#        16860
#        33749
#        52976
#        67582
#        81015
#        98430
#        111983
#        130890
#        145819
#
# Disc length: 2200 seconds
#
# Revision: 2
# Processed by: cddbd v1.5.2PL0 Copyright (c) Steve Scherf et al.
# Submitted via: ExactAudioCopy v0.99pb5
#
DISCID=7608960a
DTITLE=Johnny Reid - Dance with Me
DYEAR=2009
DGENRE=Country
TTITLE0=A Woman Like You
TTITLE1=Old Flame
TTITLE2=Dance with Me
TTITLE3=Let's Take It Outside
TTITLE4=Hey-O
TTITLE5=Brings Me Home
TTITLE6=Keep Working On Me
TTITLE7=A Moon to Remember
TTITLE8=Slow Down
TTITLE9=My Old Friend
EXTD=
EXTT0=
EXTT1=
EXTT2=
EXTT3=
EXTT4=
EXTT5=
EXTT6=
EXTT7=
EXTT8=
EXTT9=
PLAYORDER=
